<svg width="44" height="44" viewBox="0 0 44 44" fill="none" xmlns="http://www.w3.org/2000/svg">
<g clip-path="url(#clip0_22_275)">
<path d="M6.21394 -0.242676C3.53505 -0.242676 1.32211 2.04415 1.32211 4.81247V39.1875C1.32211 41.9558 3.53505 44.2426 6.21394 44.2426H39.4784C42.1573 44.2426 44.3702 41.9558 44.3702 39.1875V4.81247C44.3702 2.04415 42.1573 -0.242676 39.4784 -0.242676H6.21394ZM6.21394 3.80144H39.4784C40.0398 3.80144 40.4567 4.23227 40.4567 4.81247V39.1875C40.4567 39.7677 40.0398 40.1985 39.4784 40.1985H6.21394C5.65248 40.1985 5.23558 39.7677 5.23558 39.1875V4.81247C5.23558 4.23227 5.65248 3.80144 6.21394 3.80144ZM11.9618 7.27685C10.1029 7.27685 8.59871 8.83333 8.59871 10.7523C8.59871 12.6712 10.101 14.2277 11.9618 14.2277C13.8168 14.2277 15.325 12.6712 15.325 10.7523C15.325 8.83536 13.8168 7.27685 11.9618 7.27685ZM29.6336 16.5025C26.8257 16.5025 24.9624 18.0903 24.1914 19.5988H24.0691V16.9448H18.5658V36.1544H24.3137V26.676C24.3137 24.1727 24.7955 21.7472 27.7991 21.7472C30.7597 21.7472 30.7954 24.5761 30.7954 26.8024V36.1544H36.5433V25.6018C36.5433 20.4334 35.4783 16.5025 29.6336 16.5025ZM9.14904 16.9448V36.1544H14.9581V16.9448H9.14904Z" fill="white"/>
</g>
<defs>
<clipPath id="clip0_22_275">
<rect width="44" height="44" fill="white"/>
</clipPath>
</defs>
</svg>
