<svg width="534" height="89" viewBox="0 0 534 89" fill="none" xmlns="http://www.w3.org/2000/svg">
<path d="M52.4962 43.8523C59.1586 43.8523 65.821 43.8523 69.2984 43.7689C72.7752 43.6855 73.0671 43.5187 74.441 42.5196C75.8153 41.52 78.2717 39.688 79.6252 38.5012C80.9788 37.3145 81.2284 36.773 81.9576 36.3774C82.6862 35.9818 83.8938 35.7316 85.4344 34.8576C86.9751 33.983 88.8493 32.4841 89.8693 30.2357C90.8892 27.9873 91.056 24.9888 91.1811 22.5528C91.3057 20.1167 91.3891 18.2431 90.6813 16.2652C89.9735 14.2872 88.474 12.2051 87.4541 11.06C86.4341 9.91496 85.8926 9.70647 85.1014 9.33174C84.3102 8.957 83.2689 8.41548 81.3327 8.12414C79.3964 7.8328 76.5648 7.7911 74.4827 7.49976C72.4005 7.20843 71.0678 6.6669 69.1524 5.3139C67.8461 4.39106 66.2687 3.09019 65.0013 2" stroke="#FF2D00" stroke-width="3" stroke-miterlimit="22.9256"/>
<path d="M81.9571 36.3774C81.9642 33.8716 81.9708 31.3665 81.933 30.0513C81.8946 28.7362 81.8112 28.6111 81.8112 28.5282C81.8112 28.4448 81.8946 28.4031 81.9774 28.362" stroke="#FF2D00" stroke-width="3" stroke-miterlimit="22.9256"/>
<path d="M81.956 31.4888C82.6297 31.1958 83.303 30.9028 84.0771 30.257C84.8513 29.6107 85.7258 28.6116 86.1006 27.4457C86.4753 26.2798 86.3508 24.9471 86.2048 23.7812C86.0589 22.6153 85.8921 21.6162 85.4762 20.7833C85.0598 19.9505 84.3937 19.2844 82.9984 18.9514C81.6032 18.6183 79.4799 18.6183 77.564 18.5975C75.6486 18.5766 73.9412 18.5349 72.3588 18.1393C70.7765 17.7438 69.3187 16.9943 67.7781 15.7033C66.2374 14.4123 64.6134 12.5803 62.9894 10.7478" stroke="#FF2D00" stroke-width="3" stroke-miterlimit="22.9256"/>
<path d="M81.9779 28.3615C72.1509 28.3198 62.3233 28.2781 52.7667 28.3198C43.2102 28.3615 33.9241 28.486 29.1563 28.5903C24.3884 28.6945 24.1388 28.7779 23.493 28.965C22.8472 29.1526 21.8064 29.444 20.578 29.9021C19.3495 30.3602 17.9334 30.9846 16.2266 31.9634C14.5191 32.9422 12.5204 34.2744 11.0631 35.6279C9.60588 36.9815 8.68962 38.3553 7.64826 39.7714C6.60745 41.1869 5.44155 42.6442 4.58784 44.2479C3.73412 45.8511 3.1926 47.6002 2.83871 49.0991C2.48483 50.5981 2.31803 51.8474 2.17264 53.2426C2.02669 54.6373 1.90215 56.178 2.11009 58.3644C2.31803 60.5502 2.85956 63.3819 3.73412 65.8805C4.60814 68.3791 5.81629 70.5441 7.04419 72.2515C8.27264 73.9589 9.52193 75.2077 10.9375 76.457C12.353 77.7063 13.9359 78.9556 15.1226 79.6633C16.3094 80.3711 17.1006 80.5379 18.2873 80.9752C19.4741 81.4125 21.0564 82.1202 23.2423 82.6618C25.4281 83.2033 28.2186 83.578 31.1336 83.786C34.0481 83.9945 37.0882 84.0356 40.6693 83.9736C44.2504 83.9111 48.3731 83.7443 50.9342 83.5989C53.4948 83.4529 54.4945 83.3284 54.7441 83.1616C54.9937 82.9948 54.4939 82.7869 52.9741 81.7455C51.4543 80.7047 48.914 78.8305 47.1858 77.7897C45.4575 76.7489 44.5412 76.5404 42.8343 76.4153C41.6849 76.3313 40.1761 76.2852 38.9449 76.2699" stroke="#FF2D00" stroke-width="3" stroke-miterlimit="22.9256"/>
<path d="M66.2665 36.5755C67.6689 36.5755 68.8057 35.4386 68.8057 34.0363C68.8057 32.6339 67.6689 31.4971 66.2665 31.4971C64.8641 31.4971 63.7273 32.6339 63.7273 34.0363C63.7273 35.4386 64.8641 36.5755 66.2665 36.5755Z" stroke="#FF2D00" stroke-width="3" stroke-miterlimit="22.9256"/>
<path d="M122.024 67.512C120.701 67.512 119.677 67.1493 118.952 66.424C118.269 65.656 117.928 64.6107 117.928 63.288V26.04C117.928 24.6747 118.291 23.6507 119.016 22.968C119.741 22.2427 120.765 21.88 122.088 21.88H137.512C142.461 21.88 146.28 23.1173 148.968 25.592C151.656 28.0667 153 31.5227 153 35.96C153 40.3973 151.656 43.8747 148.968 46.392C146.28 48.8667 142.461 50.104 137.512 50.104H126.12V63.288C126.12 64.6107 125.779 65.656 125.096 66.424C124.413 67.1493 123.389 67.512 122.024 67.512ZM126.12 43.64H136.232C139.133 43.64 141.331 43 142.824 41.72C144.317 40.3973 145.064 38.4773 145.064 35.96C145.064 33.4427 144.317 31.544 142.824 30.264C141.331 28.984 139.133 28.344 136.232 28.344H126.12V43.64ZM179.59 67.64C175.238 67.64 171.419 66.68 168.134 64.76C164.891 62.84 162.374 60.152 160.582 56.696C158.79 53.1973 157.894 49.1013 157.894 44.408C157.894 40.8667 158.406 37.688 159.43 34.872C160.454 32.0133 161.904 29.5813 163.782 27.576C165.702 25.528 167.984 23.9707 170.63 22.904C173.318 21.7947 176.304 21.24 179.59 21.24C183.984 21.24 187.803 22.2 191.046 24.12C194.288 25.9973 196.806 28.664 198.598 32.12C200.39 35.576 201.286 39.6507 201.286 44.344C201.286 47.8853 200.774 51.0853 199.75 53.944C198.726 56.8027 197.254 59.256 195.334 61.304C193.456 63.352 191.174 64.9307 188.486 66.04C185.84 67.1067 182.875 67.64 179.59 67.64ZM179.59 60.6C182.363 60.6 184.71 59.96 186.63 58.68C188.592 57.4 190.086 55.544 191.11 53.112C192.176 50.68 192.71 47.7787 192.71 44.408C192.71 39.288 191.558 35.32 189.254 32.504C186.992 29.688 183.771 28.28 179.59 28.28C176.859 28.28 174.512 28.92 172.55 30.2C170.587 31.4373 169.072 33.272 168.006 35.704C166.982 38.0933 166.47 40.9947 166.47 44.408C166.47 49.4853 167.622 53.4533 169.926 56.312C172.23 59.1707 175.451 60.6 179.59 60.6ZM221.842 67.512C220.519 67.512 219.495 67.1493 218.77 66.424C218.087 65.656 217.746 64.6107 217.746 63.288V28.728H205.266C204.156 28.728 203.282 28.4293 202.642 27.832C202.044 27.192 201.745 26.3387 201.745 25.272C201.745 24.1627 202.044 23.3307 202.642 22.776C203.282 22.1787 204.156 21.88 205.266 21.88H238.418C239.527 21.88 240.38 22.1787 240.978 22.776C241.618 23.3307 241.938 24.1627 241.938 25.272C241.938 26.3387 241.618 27.192 240.978 27.832C240.38 28.4293 239.527 28.728 238.418 28.728H225.938V63.288C225.938 64.6107 225.596 65.656 224.914 66.424C224.231 67.1493 223.207 67.512 221.842 67.512ZM250.712 67.512C249.389 67.512 248.365 67.1493 247.64 66.424C246.957 65.656 246.616 64.6107 246.616 63.288V25.592C246.616 24.2267 246.957 23.1813 247.64 22.456C248.365 21.7307 249.389 21.368 250.712 21.368C252.034 21.368 253.037 21.7307 253.72 22.456C254.445 23.1813 254.808 24.2267 254.808 25.592V63.288C254.808 64.6107 254.466 65.656 253.784 66.424C253.101 67.1493 252.077 67.512 250.712 67.512ZM286.374 67.64C281.382 67.64 277.158 66.7013 273.702 64.824C270.289 62.9467 267.686 60.28 265.894 56.824C264.102 53.368 263.206 49.272 263.206 44.536C263.206 40.952 263.718 37.7307 264.742 34.872C265.809 32.0133 267.323 29.5813 269.286 27.576C271.291 25.528 273.723 23.9707 276.582 22.904C279.441 21.7947 282.683 21.24 286.31 21.24C288.699 21.24 291.089 21.5387 293.478 22.136C295.91 22.6907 298.193 23.6507 300.326 25.016C301.051 25.4853 301.521 26.0613 301.734 26.744C301.99 27.4267 302.033 28.1307 301.862 28.856C301.691 29.5387 301.371 30.136 300.902 30.648C300.433 31.16 299.835 31.48 299.11 31.608C298.427 31.736 297.659 31.5653 296.806 31.096C295.185 30.1573 293.542 29.4747 291.878 29.048C290.214 28.6213 288.358 28.408 286.31 28.408C283.153 28.408 280.486 29.048 278.31 30.328C276.134 31.5653 274.491 33.3787 273.382 35.768C272.315 38.1573 271.782 41.08 271.782 44.536C271.782 49.784 273.041 53.7733 275.558 56.504C278.075 59.2347 281.809 60.6 286.758 60.6C288.465 60.6 290.193 60.4293 291.942 60.088C293.691 59.7467 295.398 59.2773 297.062 58.68L295.462 62.328V48.696H288.422C287.355 48.696 286.523 48.4187 285.926 47.864C285.371 47.3093 285.094 46.5627 285.094 45.624C285.094 44.6427 285.371 43.896 285.926 43.384C286.523 42.872 287.355 42.616 288.422 42.616H298.982C300.049 42.616 300.859 42.9147 301.414 43.512C302.011 44.0667 302.31 44.8773 302.31 45.944V61.496C302.31 62.4347 302.118 63.224 301.734 63.864C301.393 64.504 300.817 64.9733 300.006 65.272C298.129 65.9547 295.974 66.5307 293.542 67C291.11 67.4267 288.721 67.64 286.374 67.64ZM330.555 67.64C327.44 67.64 324.688 67.2347 322.299 66.424C319.952 65.6133 317.968 64.4187 316.347 62.84C314.726 61.2187 313.51 59.2133 312.699 56.824C311.888 54.4347 311.483 51.6613 311.483 48.504V25.528C311.483 24.12 311.824 23.0747 312.507 22.392C313.232 21.7093 314.256 21.368 315.579 21.368C316.902 21.368 317.904 21.7093 318.587 22.392C319.312 23.0747 319.675 24.12 319.675 25.528V48.44C319.675 52.4933 320.592 55.544 322.427 57.592C324.304 59.5973 327.014 60.6 330.555 60.6C334.096 60.6 336.784 59.5973 338.619 57.592C340.454 55.544 341.371 52.4933 341.371 48.44V25.528C341.371 24.12 341.712 23.0747 342.395 22.392C343.12 21.7093 344.144 21.368 345.467 21.368C346.747 21.368 347.728 21.7093 348.411 22.392C349.136 23.0747 349.499 24.12 349.499 25.528V48.504C349.499 52.6853 348.774 56.2053 347.323 59.064C345.915 61.9227 343.803 64.0773 340.987 65.528C338.171 66.936 334.694 67.64 330.555 67.64ZM359.189 67.512C358.165 67.512 357.333 67.2773 356.693 66.808C356.095 66.3387 355.733 65.72 355.605 64.952C355.477 64.1413 355.626 63.2453 356.053 62.264L372.949 24.824C373.503 23.5867 374.165 22.712 374.933 22.2C375.743 21.6453 376.661 21.368 377.685 21.368C378.666 21.368 379.541 21.6453 380.309 22.2C381.119 22.712 381.802 23.5867 382.357 24.824L399.317 62.264C399.786 63.2453 399.957 64.1413 399.829 64.952C399.701 65.7627 399.338 66.4027 398.741 66.872C398.143 67.2987 397.354 67.512 396.373 67.512C395.178 67.512 394.239 67.2347 393.557 66.68C392.917 66.0827 392.341 65.1867 391.829 63.992L387.669 54.328L391.125 56.568H364.117L367.573 54.328L363.477 63.992C362.922 65.2293 362.346 66.1253 361.749 66.68C361.151 67.2347 360.298 67.512 359.189 67.512ZM377.557 30.776L368.597 52.088L366.933 50.04H388.309L386.708 52.088L377.685 30.776H377.557ZM410.718 67C409.31 67 408.222 66.6373 407.454 65.912C406.728 65.144 406.366 64.056 406.366 62.648V26.232C406.366 24.824 406.728 23.7573 407.454 23.032C408.222 22.264 409.31 21.88 410.718 21.88H423.134C430.686 21.88 436.51 23.8213 440.606 27.704C444.744 31.5867 446.814 37.1547 446.814 44.408C446.814 48.0347 446.28 51.256 445.214 54.072C444.19 56.8453 442.654 59.192 440.606 61.112C438.6 63.032 436.126 64.504 433.182 65.528C430.28 66.5093 426.931 67 423.134 67H410.718ZM414.558 60.216H422.622C425.267 60.216 427.55 59.896 429.47 59.256C431.432 58.5733 433.054 57.592 434.333 56.312C435.656 54.9893 436.638 53.3467 437.278 51.384C437.918 49.3787 438.238 47.0533 438.238 44.408C438.238 39.1173 436.936 35.1707 434.333 32.568C431.731 29.9653 427.827 28.664 422.622 28.664H414.558V60.216ZM459.468 67C458.06 67 456.972 66.6373 456.204 65.912C455.478 65.144 455.116 64.056 455.116 62.648V26.232C455.116 24.824 455.478 23.7573 456.204 23.032C456.972 22.264 458.06 21.88 459.468 21.88H482.316C483.382 21.88 484.193 22.1573 484.748 22.712C485.345 23.2667 485.644 24.056 485.644 25.08C485.644 26.1467 485.345 26.9787 484.748 27.576C484.193 28.1307 483.382 28.408 482.316 28.408H462.988V40.824H480.908C482.017 40.824 482.849 41.1013 483.404 41.656C483.958 42.2107 484.236 43.0213 484.236 44.088C484.236 45.1547 483.958 45.9653 483.404 46.52C482.849 47.0747 482.017 47.352 480.908 47.352H462.988V60.472H482.316C483.382 60.472 484.193 60.7493 484.748 61.304C485.345 61.8587 485.644 62.6693 485.644 63.736C485.644 64.8027 485.345 65.6133 484.748 66.168C484.193 66.7227 483.382 67 482.316 67H459.468ZM511.036 67.512C509.884 67.512 508.924 67.256 508.156 66.744C507.43 66.1893 506.833 65.3787 506.364 64.312L489.66 26.808C489.19 25.7413 489.062 24.8027 489.276 23.992C489.489 23.1813 489.937 22.5413 490.62 22.072C491.302 21.6027 492.113 21.368 493.052 21.368C494.289 21.368 495.206 21.6453 495.804 22.2C496.444 22.712 496.977 23.5013 497.404 24.568L512.572 59.704H509.82L524.924 24.504C525.393 23.48 525.948 22.712 526.588 22.2C527.228 21.6453 528.124 21.368 529.276 21.368C530.214 21.368 530.982 21.6027 531.58 22.072C532.22 22.5413 532.625 23.1813 532.796 23.992C532.966 24.8027 532.817 25.7413 532.348 26.808L515.644 64.312C515.174 65.3787 514.577 66.1893 513.852 66.744C513.169 67.256 512.23 67.512 511.036 67.512Z" fill="#FFFBFB"/>
</svg>
