<svg width="93" height="86" viewBox="0 0 93 86" fill="none" xmlns="http://www.w3.org/2000/svg">
<path d="M52.4962 43.8523C59.1586 43.8523 65.821 43.8523 69.2984 43.7689C72.7752 43.6855 73.0671 43.5187 74.441 42.5196C75.8153 41.52 78.2717 39.688 79.6252 38.5012C80.9788 37.3145 81.2284 36.773 81.9576 36.3774C82.6862 35.9818 83.8938 35.7316 85.4344 34.8576C86.9751 33.983 88.8493 32.4841 89.8693 30.2357C90.8892 27.9873 91.056 24.9888 91.1811 22.5528C91.3057 20.1167 91.3891 18.2431 90.6813 16.2652C89.9735 14.2872 88.474 12.2051 87.4541 11.06C86.4341 9.91496 85.8926 9.70647 85.1014 9.33174C84.3102 8.957 83.2689 8.41548 81.3327 8.12414C79.3964 7.8328 76.5648 7.7911 74.4827 7.49976C72.4005 7.20843 71.0678 6.6669 69.1524 5.3139C67.8461 4.39106 66.2687 3.09019 65.0013 2" stroke="#FF2D00" stroke-width="3" stroke-miterlimit="22.9256"/>
<path d="M81.9571 36.3774C81.9642 33.8717 81.9708 31.3665 81.933 30.0514C81.8946 28.7362 81.8112 28.6112 81.8112 28.5283C81.8112 28.4449 81.8946 28.4032 81.9774 28.3621" stroke="#FF2D00" stroke-width="3" stroke-miterlimit="22.9256"/>
<path d="M81.956 31.4888C82.6297 31.1958 83.303 30.9028 84.0771 30.257C84.8513 29.6107 85.7258 28.6116 86.1006 27.4457C86.4753 26.2798 86.3508 24.9471 86.2048 23.7812C86.0589 22.6153 85.8921 21.6162 85.4762 20.7833C85.0598 19.9505 84.3937 19.2844 82.9984 18.9514C81.6032 18.6183 79.4799 18.6183 77.564 18.5975C75.6486 18.5766 73.9412 18.5349 72.3588 18.1393C70.7765 17.7438 69.3187 16.9943 67.7781 15.7033C66.2374 14.4123 64.6134 12.5803 62.9894 10.7478" stroke="#FF2D00" stroke-width="3" stroke-miterlimit="22.9256"/>
<path d="M81.9779 28.3615C72.1509 28.3198 62.3233 28.2781 52.7667 28.3198C43.2102 28.3615 33.9241 28.486 29.1563 28.5903C24.3884 28.6945 24.1388 28.7779 23.493 28.965C22.8472 29.1526 21.8064 29.444 20.578 29.9021C19.3495 30.3602 17.9334 30.9846 16.2266 31.9634C14.5191 32.9422 12.5204 34.2744 11.0631 35.6279C9.60588 36.9815 8.68962 38.3553 7.64826 39.7714C6.60745 41.1869 5.44155 42.6442 4.58784 44.2479C3.73412 45.8511 3.1926 47.6002 2.83871 49.0991C2.48483 50.5981 2.31803 51.8474 2.17264 53.2426C2.02669 54.6373 1.90215 56.178 2.11009 58.3644C2.31803 60.5502 2.85956 63.3819 3.73412 65.8805C4.60814 68.3791 5.81629 70.5441 7.04419 72.2515C8.27264 73.9589 9.52193 75.2077 10.9375 76.457C12.353 77.7063 13.9359 78.9556 15.1226 79.6633C16.3094 80.3711 17.1006 80.5379 18.2873 80.9752C19.4741 81.4125 21.0564 82.1202 23.2423 82.6618C25.4281 83.2033 28.2186 83.578 31.1336 83.786C34.0481 83.9945 37.0882 84.0356 40.6693 83.9736C44.2504 83.9111 48.3731 83.7443 50.9342 83.5989C53.4948 83.4529 54.4945 83.3284 54.7441 83.1616C54.9937 82.9948 54.4939 82.7869 52.9741 81.7455C51.4543 80.7047 48.914 78.8305 47.1858 77.7897C45.4575 76.7489 44.5412 76.5404 42.8343 76.4153C41.6849 76.3313 40.1761 76.2852 38.9449 76.2699" stroke="#FF2D00" stroke-width="3" stroke-miterlimit="22.9256"/>
<path d="M66.2665 36.5755C67.6689 36.5755 68.8057 35.4386 68.8057 34.0363C68.8057 32.6339 67.6689 31.4971 66.2665 31.4971C64.8641 31.4971 63.7273 32.6339 63.7273 34.0363C63.7273 35.4386 64.8641 36.5755 66.2665 36.5755Z" stroke="#FF2D00" stroke-width="3" stroke-miterlimit="22.9256"/>
</svg>
